<?xml version="1.0" encoding="utf-8"?>
<svg xmlns="http://www.w3.org/2000/svg" height="128" width="128" viewBox="0 0 128 128">
  <g>
    <path id="path1" transform="rotate(0,64,64) translate(0,24.7700004577637) scale(4,4)  " fill="#FFFFFF" d="M11.218994,2.3919993C7.4210205,7.3679996,12.794006,10.836003,13.778015,6.4740019L14.201019,2.4379893 15.054993,3.5189992 16.098999,3.5189992 17.144012,3.5189992 17.994019,2.4379893 18.421021,6.4740019C19.401001,10.827001 24.75,7.3880039 21.005005,2.4290019 25.998016,3.5789965 29.539001,6.392993 29.539001,9.6680041 29.539001,12.174994 27.458008,14.414008 24.238007,15.840996 26.72702,12.226996 22.416016,11.159993 20.458008,14.922004 19.535004,11.885992 16.912018,13.374 16.076996,17.224007 15.248016,13.336005 12.662994,11.885992 11.740997,14.922004 9.7590027,11.116994 5.3770142,12.250006 8.0460205,15.965996 7.5420227,15.749001 7.0610046,15.515999 6.6140137,15.269005 5.1650085,14.388007 4.0559998,13.394004 3.2990112,12.355993 2.756012,11.515997 2.4620056,10.610005 2.4620056,9.6680041 2.4620056,6.392993 6.0020142,3.5789965 10.990021,2.4319926 11.063995,2.4189921 11.141998,2.4039927 11.218994,2.3919993z M16,1.0959936C7.8150024,1.0959935 1.1380005,5.0109888 1.1380005,9.8100024 1.1380005,14.605002 7.8150024,18.519007 16,18.519007 24.187012,18.519007 30.865021,14.605002 30.865021,9.8100024 30.865021,5.0109888 24.187012,1.0959935 16,1.0959936z M16,0C24.811005,-5.3332769E-08 32,4.4069996 32,9.8100024 32,15.207999 24.811005,19.615 16,19.615 7.1889954,19.615 0,15.207999 0,9.8100024 0,4.4069996 7.1889954,-5.3332769E-08 16,0z" />
  </g>
</svg>

